<?xml version="1.0" encoding="utf-8"?>
<!-- Generator: Adobe Illustrator 18.0.0, SVG Export Plug-In . SVG Version: 6.00 Build 0)  -->
<!DOCTYPE svg PUBLIC "-//W3C//DTD SVG 1.1//EN" "http://www.w3.org/Graphics/SVG/1.1/DTD/svg11.dtd">
<svg version="1.1" id="Capa_1" xmlns="http://www.w3.org/2000/svg" xmlns:xlink="http://www.w3.org/1999/xlink" x="0px" y="0px"
	 viewBox="0 0 612 792" enable-background="new 0 0 612 792" xml:space="preserve">
<g>
	<g>
		<path fill="#FFFFFF" d="M586.8,199.2H25.2C11.3,199.2,0,210.5,0,224.4v343.2c0,13.9,11.3,25.2,25.2,25.2h561.6
			c13.9,0,25.2-11.3,25.2-25.2V224.4C612,210.5,600.7,199.2,586.8,199.2z M25.2,219h561.6c2.4,0,4.5,1.6,5.1,3.8L306,401.4
			L20.1,222.8C20.8,220.5,22.8,219,25.2,219z M19.8,245.4l205.7,128.4L19.8,537V245.4z M592.2,567.5c0,3-2.4,5.4-5.4,5.4H25.2
			c-3,0-5.4-2.4-5.4-5.4v-5.3l223.5-176.6l57.4,35.9c3.2,2,7.3,2,10.6,0l57.4-35.9l223.5,176.6V567.5z M592.2,537L386,374.4
			l206.2-127.8V537z"/>
	</g>
</g>
</svg>
